name C:/MyDriveSym/Projects/mobilecap/Data\Session20210819_0002\mocap\ForceDataProcessed\walkingTS1_forces.mot
datacolumns 19
datarows 14
range 0.35700000 0.36350000
endheader 
time	R_ground_force_vx	R_ground_force_vy	R_ground_force_vz	R_ground_force_px	R_ground_force_py	R_ground_force_pz	R_ground_torque_x	R_ground_torque_y	R_ground_torque_z	L_ground_force_vx	L_ground_force_vy	L_ground_force_vz	L_ground_force_px	L_ground_force_py	L_ground_force_pz	L_ground_torque_x	L_ground_torque_y	L_ground_torque_z	
          0.35700000	        -15.51226900	        460.57549300	        -28.92623100	          0.17347900	          0.00600000	         -0.10828200	          0.00000000	         -2.80155600	          0.00000000	          0.00000000	          0.00000000	          0.00000000	          0.63349000	          0.00000000	         -0.16811800	          0.00000000	          0.00000000	          0.00000000	
          0.35750000	        -15.35733400	        460.80757700	        -28.92068000	          0.17361700	          0.00600000	         -0.10829900	          0.00000000	         -2.81971600	          0.00000000	          0.00000000	          0.00000000	          0.00000000	          0.63349000	          0.00000000	         -0.16811800	          0.00000000	          0.00000000	          0.00000000	
          0.35800000	        -15.20278600	        461.04633500	        -28.91506400	          0.17375500	          0.00600000	         -0.10831600	          0.00000000	         -2.83794200	          0.00000000	          0.00000000	          0.00000000	          0.00000000	          0.63349000	          0.00000000	         -0.16811800	          0.00000000	          0.00000000	          0.00000000	
          0.35850000	        -15.04861600	        461.29175000	        -28.90938000	          0.17389300	          0.00600000	         -0.10833300	          0.00000000	         -2.85623400	          0.00000000	          0.00000000	          0.00000000	          0.00000000	          0.63349000	          0.00000000	         -0.16811800	          0.00000000	          0.00000000	          0.00000000	
          0.35900000	        -14.89481300	        461.54380300	        -28.90362300	          0.17403100	          0.00600000	         -0.10835100	          0.00000000	         -2.87459000	          0.00000000	          0.00000000	          0.00000000	          0.00000000	          0.63349000	          0.00000000	         -0.16811800	          0.00000000	          0.00000000	          0.00000000	
          0.35950000	        -14.74136800	        461.80247700	        -28.89779200	          0.17416800	          0.00600000	         -0.10837000	          0.00000000	         -2.89301100	          0.00000000	          0.00000000	          0.00000000	          0.00000000	          0.63349000	          0.00000000	         -0.16811800	          0.00000000	          0.00000000	          0.00000000	
          0.36000000	        -14.58827100	        462.06775100	        -28.89188400	          0.17430600	          0.00600000	         -0.10839000	          0.00000000	         -2.91149700	          0.00000000	          0.00000000	          0.00000000	          0.00000000	          0.63349000	          0.00000000	         -0.16811800	          0.00000000	          0.00000000	          0.00000000	
          0.36050000	        -14.43551000	        462.33960700	        -28.88589500	          0.17444300	          0.00600000	         -0.10841000	          0.00000000	         -2.93004700	          0.00000000	          0.00000000	          0.00000000	          0.00000000	          0.63349000	          0.00000000	         -0.16811800	          0.00000000	          0.00000000	          0.00000000	
          0.36100000	        -14.28307800	        462.61802400	        -28.87982400	          0.17458100	          0.00600000	         -0.10843100	          0.00000000	         -2.94866000	          0.00000000	          0.00000000	          0.00000000	          0.00000000	          0.63349000	          0.00000000	         -0.16811800	          0.00000000	          0.00000000	          0.00000000	
          0.36150000	        -14.13096200	        462.90298300	        -28.87366700	          0.17471800	          0.00600000	         -0.10845200	          0.00000000	         -2.96733600	          0.00000000	          0.00000000	          0.00000000	          0.00000000	          0.63349000	          0.00000000	         -0.16811800	          0.00000000	          0.00000000	          0.00000000	
          0.36200000	        -13.97915400	        463.19446300	        -28.86742300	          0.17485500	          0.00600000	         -0.10847400	          0.00000000	         -2.98607500	          0.00000000	          0.00000000	          0.00000000	          0.00000000	          0.63349000	          0.00000000	         -0.16811800	          0.00000000	          0.00000000	          0.00000000	
          0.36250000	        -13.82764300	        463.49244400	        -28.86108800	          0.17499200	          0.00600000	         -0.10849700	          0.00000000	         -3.00487600	          0.00000000	          0.00000000	          0.00000000	          0.00000000	          0.63349000	          0.00000000	         -0.16811800	          0.00000000	          0.00000000	          0.00000000	
          0.36300000	        -13.67642000	        463.79690400	        -28.85466100	          0.17512900	          0.00600000	         -0.10852000	          0.00000000	         -3.02373900	          0.00000000	          0.00000000	          0.00000000	          0.00000000	          0.63349000	          0.00000000	         -0.16811800	          0.00000000	          0.00000000	          0.00000000	
          0.36350000	        -13.52547400	        464.10782200	        -28.84813900	          0.17526600	          0.00600000	         -0.10854400	          0.00000000	         -3.04266300	          0.00000000	          0.00000000	          0.00000000	          0.00000000	          0.63349000	          0.00000000	         -0.16811800	          0.00000000	          0.00000000	          0.00000000	
